<svg id="svg" version="1.1" width="610" height="500" xmlns="http://www.w3.org/2000/svg" xmlns:xlink="http://www.w3.org/1999/xlink" style="display: block;"><g id="svgg"><path id="path0" d="M14.426 74.272 C 14.426 76.262,14.669 76.500,17.858 77.632 C 26.548 80.719,28.952 85.046,41.396 120.000 C 43.900 127.033,46.713 134.705,47.647 137.049 C 48.581 139.393,51.792 148.098,54.782 156.393 C 57.773 164.689,62.920 178.852,66.220 187.869 C 69.520 196.885,74.423 210.459,77.115 218.033 C 79.808 225.607,82.621 233.279,83.366 235.082 C 84.816 238.591,94.012 263.864,98.756 277.377 C 103.232 290.128,102.448 294.232,95.031 296.866 C 92.058 297.922,91.803 298.181,91.803 300.154 L 91.803 302.295 119.672 302.295 L 147.541 302.295 147.541 300.031 C 147.541 298.001,147.252 297.636,144.754 296.509 C 135.382 292.282,135.322 292.610,156.699 231.148 C 160.337 220.689,165.411 205.787,167.974 198.033 C 170.538 190.279,172.946 183.543,173.326 183.064 C 174.115 182.067,173.592 181.495,181.991 192.554 L 187.541 199.861 187.541 244.214 C 187.541 296.048,187.792 294.498,178.987 297.136 C 176.639 297.839,176.393 298.120,176.393 300.104 L 176.393 302.295 200.656 302.295 L 224.918 302.295 224.918 300.104 C 224.918 298.120,224.673 297.839,222.325 297.136 C 213.520 294.498,213.770 296.045,213.770 244.238 L 213.770 199.908 215.871 196.839 C 220.039 190.748,226.466 182.623,227.116 182.623 C 227.481 182.623,229.818 188.377,232.309 195.410 C 234.800 202.443,239.291 215.131,242.289 223.607 C 245.287 232.082,248.099 239.902,248.539 240.984 C 248.979 242.066,251.836 250.033,254.888 258.689 C 257.940 267.344,261.342 276.934,262.449 280.000 C 265.894 289.542,265.002 293.222,258.475 296.393 C 255.447 297.865,255.100 298.251,255.092 300.164 L 255.082 302.295 282.295 302.295 L 309.508 302.295 309.506 300.164 C 309.504 298.258,309.194 297.905,306.572 296.827 C 302.244 295.047,299.672 291.822,299.672 288.174 C 299.672 284.605,300.217 282.954,321.614 221.639 C 325.075 211.721,330.246 196.820,333.106 188.525 C 335.965 180.230,341.280 164.885,344.918 154.426 C 348.555 143.967,353.712 128.985,356.377 121.132 C 368.419 85.652,371.536 80.131,381.148 77.251 C 383.352 76.590,383.607 76.286,383.607 74.322 L 383.607 72.131 358.361 72.131 L 333.115 72.131 333.115 74.337 C 333.115 76.345,333.377 76.643,336.047 77.663 C 345.550 81.292,345.686 80.483,325.574 140.000 C 321.065 153.344,315.471 170.016,313.143 177.049 C 310.815 184.082,305.656 199.426,301.679 211.148 C 297.701 222.869,292.338 238.951,289.759 246.885 C 287.181 254.820,284.579 262.289,283.976 263.484 L 282.880 265.657 280.682 259.877 C 279.474 256.699,276.330 247.754,273.697 240.000 C 271.063 232.246,265.934 217.344,262.299 206.885 C 258.664 196.426,253.313 180.887,250.407 172.354 L 245.124 156.840 250.103 149.731 C 252.841 145.822,258.204 138.344,262.020 133.115 C 268.925 123.651,275.685 114.319,283.471 103.503 C 292.570 90.864,303.987 80.000,310.656 77.635 C 313.857 76.499,314.098 76.263,314.098 74.272 L 314.098 72.131 287.541 72.131 L 260.984 72.131 260.984 74.417 C 260.984 76.389,261.285 76.830,263.169 77.617 C 269.881 80.421,268.955 86.611,260.074 98.315 C 258.550 100.324,255.254 104.852,252.750 108.378 C 250.246 111.903,247.295 116.055,246.194 117.604 C 245.092 119.153,242.478 122.851,240.384 125.822 C 238.291 128.792,236.489 131.132,236.380 131.021 C 235.234 129.856,220.984 87.532,220.984 85.295 C 220.984 83.012,224.696 78.882,227.820 77.689 C 230.561 76.642,230.820 76.353,230.820 74.337 L 230.820 72.131 201.967 72.131 L 173.115 72.131 173.115 74.272 C 173.115 76.237,173.374 76.505,176.260 77.531 C 183.265 80.018,184.046 83.537,180.158 95.082 C 172.932 116.542,167.696 131.537,167.274 131.980 C 166.365 132.936,139.929 97.471,136.471 90.658 C 133.110 84.037,134.202 79.989,139.992 77.608 C 142.637 76.520,142.946 76.171,142.948 74.262 L 142.951 72.131 113.770 72.131 L 84.590 72.131 84.590 74.272 C 84.590 76.265,84.830 76.498,88.033 77.623 C 94.621 79.939,98.942 84.236,112.787 102.241 C 115.492 105.759,120.406 112.153,123.708 116.450 C 127.010 120.747,132.547 127.951,136.011 132.459 C 149.308 149.759,155.771 158.204,156.651 159.427 C 157.457 160.548,157.274 161.477,155.075 167.397 C 153.706 171.083,150.731 179.557,148.465 186.230 C 146.198 192.902,141.347 206.918,137.685 217.377 C 134.023 227.836,128.826 242.738,126.135 250.492 C 120.183 267.642,120.710 267.113,117.766 258.890 C 115.030 251.251,106.439 227.020,98.164 203.607 C 95.105 194.951,92.244 186.984,91.805 185.902 C 91.367 184.820,88.513 176.852,85.463 168.197 C 82.414 159.541,77.242 144.934,73.970 135.738 C 57.290 88.852,56.330 85.331,59.029 80.963 C 60.274 78.949,64.234 76.721,66.571 76.721 C 67.242 76.721,67.541 76.015,67.541 74.426 L 67.541 72.131 40.984 72.131 L 14.426 72.131 14.426 74.272 M201.634 109.672 C 202.251 111.205,204.923 118.656,207.573 126.230 C 210.222 133.803,213.752 143.673,215.415 148.162 L 218.441 156.325 215.793 159.966 C 214.337 161.968,210.705 167.073,207.721 171.311 C 204.737 175.548,202.000 179.002,201.639 178.986 C 201.279 178.970,198.623 175.690,195.738 171.696 C 192.852 167.702,189.286 162.910,187.813 161.048 C 182.465 154.286,182.631 154.998,184.950 148.769 C 186.075 145.749,189.598 135.607,192.779 126.230 C 199.485 106.463,199.327 106.885,199.999 106.885 C 200.282 106.885,201.018 108.139,201.634 109.672 " stroke="none" fill="#000000" fill-rule="evenodd"></path><path id="path1" d="M13.896 74.193 C 14.084 76.730,18.146 79.778,19.515 78.409 C 19.672 78.252,18.591 77.761,17.113 77.319 C 14.664 76.585,14.426 76.319,14.426 74.322 L 14.426 72.131 40.984 72.131 L 67.541 72.131 67.541 74.290 C 67.541 76.275,67.316 76.510,64.754 77.202 C 63.221 77.616,61.377 78.408,60.656 78.962 C 59.678 79.713,60.178 79.649,62.623 78.710 C 64.426 78.018,66.436 77.290,67.089 77.092 C 68.013 76.812,68.231 76.186,68.073 74.268 L 67.869 71.803 40.782 71.632 L 13.694 71.461 13.896 74.193 M83.934 74.291 C 83.934 77.048,83.992 77.121,86.716 77.848 C 90.320 78.810,90.786 78.370,87.277 77.319 C 84.830 76.586,84.590 76.318,84.590 74.329 L 84.590 72.145 113.934 71.967 L 143.279 71.789 113.607 71.632 L 83.934 71.475 83.934 74.291 M201.803 71.967 L 230.820 72.145 230.820 74.344 C 230.820 76.337,230.551 76.646,227.949 77.639 C 226.370 78.242,224.526 79.389,223.851 80.188 C 222.636 81.624,222.637 81.628,223.934 80.539 C 224.656 79.933,226.648 78.837,228.361 78.103 C 231.341 76.825,231.475 76.654,231.475 74.122 L 231.475 71.475 202.131 71.632 L 172.787 71.789 201.803 71.967 M260.328 74.362 C 260.328 77.021,260.494 77.307,262.431 77.982 C 263.587 78.385,265.282 79.373,266.197 80.177 L 267.859 81.639 266.553 80.073 C 265.834 79.212,264.287 78.102,263.115 77.606 C 261.290 76.834,260.984 76.375,260.984 74.417 L 260.984 72.131 287.541 72.131 L 314.098 72.131 314.098 74.322 C 314.098 76.319,313.860 76.585,311.412 77.319 C 309.934 77.761,308.853 78.252,309.010 78.409 C 310.376 79.775,314.441 76.730,314.628 74.200 L 314.830 71.475 287.579 71.475 L 260.328 71.475 260.328 74.362 M332.585 74.211 C 332.700 75.769,333.147 77.019,333.623 77.113 C 334.083 77.204,334.157 77.129,333.787 76.945 C 333.417 76.762,333.115 75.604,333.115 74.372 L 333.115 72.131 358.361 72.131 L 383.607 72.131 383.607 74.272 C 383.607 76.234,383.346 76.506,380.492 77.521 C 378.779 78.130,376.787 79.084,376.066 79.641 C 375.329 80.209,376.335 79.970,378.361 79.096 C 380.344 78.240,382.484 77.365,383.115 77.151 C 383.954 76.867,384.262 76.051,384.262 74.119 L 384.262 71.475 358.323 71.475 L 332.384 71.475 332.585 74.211 M138.893 78.056 C 135.850 79.664,134.405 81.699,134.502 84.244 C 134.576 86.196,134.585 86.191,135.031 83.912 C 135.680 80.598,136.158 80.050,139.916 78.300 C 141.766 77.439,142.836 76.744,142.295 76.757 C 141.754 76.769,140.223 77.354,138.893 78.056 M176.213 78.107 C 178.098 78.831,180.237 80.183,180.967 81.112 C 181.698 82.040,182.295 82.516,182.295 82.170 C 182.295 80.548,176.066 76.656,173.628 76.755 C 173.165 76.774,174.329 77.382,176.213 78.107 M90.546 78.879 C 90.697 78.984,92.000 79.890,93.443 80.894 L 96.066 82.718 93.795 80.703 C 92.547 79.595,91.243 78.689,90.899 78.689 C 90.555 78.689,90.396 78.774,90.546 78.879 M305.574 80.059 C 304.485 80.949,304.375 81.172,305.246 80.722 C 307.385 79.616,308.571 78.708,307.869 78.713 C 307.508 78.716,306.475 79.321,305.574 80.059 M372.660 82.131 C 371.379 83.543,368.507 87.894,369.306 87.213 C 369.934 86.678,374.436 80.656,374.208 80.656 C 374.093 80.656,373.397 81.320,372.660 82.131 M26.280 84.471 C 27.442 86.340,28.502 87.869,28.636 87.869 C 29.165 87.869,26.258 82.807,25.247 81.968 C 24.653 81.475,25.119 82.602,26.280 84.471 M298.361 86.230 C 295.674 88.934,293.623 91.148,293.803 91.148 C 293.984 91.148,296.330 88.934,299.016 86.230 C 301.703 83.525,303.754 81.311,303.574 81.311 C 303.393 81.311,301.048 83.525,298.361 86.230 M99.015 85.900 C 100.524 87.702,102.100 89.387,102.518 89.643 C 102.937 89.900,101.841 88.426,100.084 86.367 C 98.327 84.308,96.751 82.623,96.581 82.623 C 96.410 82.623,97.506 84.097,99.015 85.900 M221.392 83.632 C 221.168 84.218,221.014 85.337,221.051 86.119 C 221.093 87.018,221.316 86.698,221.656 85.250 C 222.229 82.813,222.073 81.858,221.392 83.632 M135.096 87.071 C 135.078 88.135,137.903 93.674,139.348 95.410 C 140.032 96.230,139.938 95.848,139.097 94.388 C 138.358 93.105,137.159 90.744,136.432 89.142 C 135.705 87.540,135.104 86.608,135.096 87.071 M179.168 96.217 C 178.021 99.698,177.192 102.657,177.326 102.790 C 177.460 102.924,178.516 100.193,179.672 96.721 C 180.829 93.250,181.658 90.291,181.514 90.148 C 181.370 90.004,180.315 92.735,179.168 96.217 M290.114 95.246 C 287.335 98.204,284.261 101.986,285.983 100.328 C 287.966 98.419,293.291 92.459,293.013 92.459 C 292.859 92.459,291.554 93.713,290.114 95.246 M261.042 96.230 C 259.430 98.587,259.331 98.866,260.636 97.377 C 262.371 95.397,263.858 93.115,263.413 93.115 C 263.281 93.115,262.214 94.516,261.042 96.230 M110.223 99.508 C 112.471 102.484,114.429 104.918,114.573 104.918 C 114.990 104.918,111.029 99.600,108.469 96.721 C 107.186 95.279,107.976 96.533,110.223 99.508 M141.639 99.016 C 142.410 100.098,143.188 100.984,143.368 100.984 C 143.548 100.984,143.066 100.098,142.295 99.016 C 141.525 97.934,140.747 97.049,140.566 97.049 C 140.386 97.049,140.869 97.934,141.639 99.016 M147.633 107.243 C 148.810 108.882,150.214 110.579,150.752 111.013 C 151.290 111.448,150.458 110.107,148.901 108.033 C 145.553 103.571,144.545 102.943,147.633 107.243 M360.079 110.243 C 358.962 113.574,358.160 116.411,358.297 116.548 C 358.434 116.685,359.460 114.072,360.577 110.741 C 361.694 107.410,362.496 104.573,362.359 104.436 C 362.222 104.298,361.196 106.912,360.079 110.243 M36.290 107.179 C 36.490 107.701,37.448 110.365,38.418 113.098 C 39.389 115.832,40.298 117.953,40.439 117.812 C 40.768 117.483,36.709 106.230,36.261 106.230 C 36.076 106.230,36.089 106.657,36.290 107.179 M250.465 110.984 C 248.589 113.598,247.632 115.148,248.337 114.426 C 249.973 112.755,254.646 106.230,254.207 106.230 C 254.025 106.230,252.341 108.369,250.465 110.984 M279.253 109.344 C 277.366 111.622,276.567 112.787,276.891 112.787 C 277.073 112.787,278.009 111.754,278.972 110.492 C 280.759 108.149,280.975 107.265,279.253 109.344 M120.328 112.787 C 121.993 114.951,123.503 116.721,123.683 116.721 C 123.864 116.721,122.649 114.951,120.984 112.787 C 119.318 110.623,117.809 108.852,117.628 108.852 C 117.448 108.852,118.663 110.623,120.328 112.787 M64.918 110.345 C 64.918 111.191,68.380 120.035,68.618 119.797 C 68.756 119.659,68.103 117.509,67.166 115.019 C 65.563 110.759,64.918 109.418,64.918 110.345 M196.144 116.144 C 195.027 119.475,194.225 122.313,194.362 122.450 C 194.499 122.587,195.525 119.974,196.643 116.643 C 197.760 113.312,198.562 110.474,198.425 110.337 C 198.288 110.200,197.261 112.813,196.144 116.144 M202.129 112.295 C 202.296 112.746,202.948 114.683,203.578 116.600 C 204.208 118.517,204.839 119.970,204.980 119.828 C 205.313 119.496,202.609 111.475,202.165 111.475 C 201.979 111.475,201.963 111.844,202.129 112.295 M230.326 114.918 C 230.493 115.369,231.144 117.306,231.775 119.223 C 232.405 121.140,233.036 122.592,233.177 122.451 C 233.510 122.119,230.806 114.098,230.361 114.098 C 230.176 114.098,230.160 114.467,230.326 114.918 M331.551 120.404 C 330.971 122.107,330.609 123.615,330.748 123.753 C 330.887 123.892,331.475 122.612,332.055 120.908 C 332.636 119.204,332.997 117.697,332.859 117.558 C 332.720 117.419,332.132 118.700,331.551 120.404 M158.019 121.292 C 158.781 122.363,159.740 123.446,160.150 123.699 C 160.559 123.952,160.067 123.076,159.058 121.752 C 156.866 118.878,156.039 118.512,158.019 121.292 M170.240 122.371 C 169.659 124.074,169.298 125.582,169.436 125.721 C 169.575 125.859,170.164 124.579,170.744 122.875 C 171.325 121.171,171.686 119.664,171.547 119.525 C 171.409 119.387,170.820 120.667,170.240 122.371 M240.533 124.754 C 237.875 128.318,235.803 131.535,236.837 130.492 C 238.173 129.145,242.808 122.623,242.429 122.623 C 242.261 122.623,241.407 123.582,240.533 124.754 M269.042 123.443 C 266.198 127.159,264.699 129.377,265.260 129.037 C 266.035 128.569,270.389 122.623,269.957 122.623 C 269.799 122.623,269.387 122.992,269.042 123.443 M128.989 124.098 C 134.585 131.436,138.531 136.393,138.777 136.393 C 138.946 136.393,136.811 133.443,134.034 129.836 C 131.256 126.230,128.844 123.279,128.674 123.279 C 128.503 123.279,128.645 123.648,128.989 124.098 M167.812 129.112 C 167.118 131.428,166.866 131.683,165.963 130.979 C 165.033 130.253,165.019 130.293,165.841 131.339 C 166.349 131.986,166.972 132.281,167.227 131.995 C 167.907 131.231,169.234 127.048,168.901 126.715 C 168.744 126.558,168.254 127.637,167.812 129.112 M263.796 130.656 C 260.952 134.372,259.453 136.590,260.014 136.250 C 260.789 135.782,265.143 129.836,264.711 129.836 C 264.553 129.836,264.141 130.205,263.796 130.656 M348.275 144.341 C 347.158 147.672,346.356 150.509,346.493 150.646 C 346.630 150.783,347.657 148.170,348.774 144.839 C 349.891 141.508,350.693 138.671,350.556 138.534 C 350.419 138.397,349.393 141.010,348.275 144.341 M144.978 144.754 C 147.225 147.730,149.183 150.164,149.327 150.164 C 149.744 150.164,145.784 144.846,143.223 141.967 C 141.940 140.525,142.730 141.779,144.978 144.754 M48.643 140.984 C 50.297 145.955,52.695 152.113,52.898 151.911 C 53.191 151.617,49.295 140.856,48.710 140.345 C 48.493 140.155,48.463 140.443,48.643 140.984 M212.875 142.295 C 213.096 143.197,213.680 144.820,214.173 145.902 C 214.892 147.482,214.989 147.546,214.666 146.230 C 214.445 145.328,213.861 143.705,213.368 142.623 C 212.649 141.043,212.552 140.978,212.875 142.295 M76.184 142.295 C 77.838 147.266,80.236 153.425,80.439 153.222 C 80.732 152.929,76.836 142.167,76.251 141.656 C 76.034 141.467,76.004 141.754,76.184 142.295 M254.965 142.787 C 253.258 144.794,250.865 148.449,251.524 148.041 C 252.257 147.588,256.609 141.639,256.208 141.639 C 256.061 141.639,255.502 142.156,254.965 142.787 M184.344 150.228 L 182.969 154.300 184.279 156.421 C 185.000 157.587,186.074 158.943,186.667 159.434 C 187.259 159.926,186.805 158.996,185.658 157.367 L 183.571 154.406 184.902 150.538 C 185.634 148.411,186.117 146.554,185.976 146.413 C 185.835 146.272,185.100 147.989,184.344 150.228 M320.734 152.866 C 319.617 156.197,318.815 159.034,318.952 159.171 C 319.089 159.308,320.116 156.695,321.233 153.364 C 322.350 150.033,323.152 147.196,323.015 147.058 C 322.878 146.921,321.852 149.535,320.734 152.866 M215.498 149.508 C 215.719 150.410,216.303 152.033,216.796 153.115 C 217.515 154.695,217.612 154.759,217.289 153.443 C 217.068 152.541,216.484 150.918,215.991 149.836 C 215.272 148.256,215.175 148.192,215.498 149.508 M215.212 159.839 C 213.661 162.157,212.660 163.887,212.988 163.685 C 213.852 163.151,218.630 156.106,218.306 155.845 C 218.156 155.724,216.764 157.521,215.212 159.839 M155.366 158.467 C 156.849 160.495,156.860 160.612,155.821 163.661 C 155.236 165.376,154.875 166.896,155.017 167.039 C 155.160 167.181,155.768 165.819,156.368 164.011 C 157.525 160.529,157.241 159.149,154.992 157.323 C 154.255 156.724,154.387 157.131,155.366 158.467 M193.482 168.809 C 194.631 170.409,196.437 172.696,197.495 173.891 C 198.554 175.087,197.744 173.779,195.696 170.984 C 193.648 168.189,191.842 165.902,191.683 165.902 C 191.524 165.902,192.334 167.210,193.482 168.809 M86.278 170.492 C 86.519 171.393,86.989 172.574,87.324 173.115 C 87.746 173.798,87.798 173.598,87.493 172.459 C 87.252 171.557,86.781 170.377,86.447 169.836 C 86.024 169.152,85.973 169.352,86.278 170.492 M205.550 173.442 C 203.877 175.786,202.018 177.990,201.418 178.340 C 200.531 178.858,200.511 178.976,201.311 178.976 C 201.852 178.975,202.751 178.321,203.308 177.520 C 203.864 176.720,205.439 174.516,206.806 172.623 C 208.173 170.730,209.134 169.180,208.941 169.180 C 208.749 169.180,207.222 171.098,205.550 173.442 M336.799 177.455 C 335.862 180.244,335.207 182.639,335.344 182.776 C 335.482 182.913,336.361 180.744,337.299 177.955 C 338.237 175.166,338.892 172.771,338.754 172.634 C 338.617 172.497,337.737 174.666,336.799 177.455 M61.399 175.738 C 61.621 176.639,62.205 178.262,62.697 179.344 C 63.417 180.924,63.514 180.989,63.191 179.672 C 62.970 178.770,62.386 177.148,61.893 176.066 C 61.173 174.486,61.076 174.421,61.399 175.738 M88.687 177.213 C 88.853 177.664,89.505 179.601,90.135 181.518 C 90.765 183.435,91.397 184.888,91.538 184.746 C 91.870 184.414,89.167 176.393,88.722 176.393 C 88.536 176.393,88.520 176.762,88.687 177.213 M253.277 181.148 C 253.443 181.598,254.095 183.536,254.725 185.452 C 255.356 187.369,255.987 188.822,256.128 188.681 C 256.460 188.348,253.757 180.328,253.312 180.328 C 253.126 180.328,253.111 180.697,253.277 181.148 M63.982 182.951 C 64.224 183.852,64.694 185.033,65.029 185.574 C 65.451 186.257,65.503 186.057,65.198 184.918 C 64.957 184.016,64.486 182.836,64.152 182.295 C 63.729 181.611,63.678 181.811,63.982 182.951 M309.654 186.047 C 308.872 188.452,308.342 190.528,308.475 190.661 C 308.609 190.794,309.368 188.948,310.164 186.557 C 310.959 184.167,311.490 182.091,311.343 181.944 C 311.195 181.797,310.436 183.643,309.654 186.047 M173.246 183.082 C 172.813 183.515,172.478 184.326,172.501 184.885 C 172.525 185.490,172.789 185.287,173.151 184.384 C 173.517 183.471,174.063 183.054,174.522 183.338 C 174.996 183.631,175.108 183.523,174.817 183.052 C 174.238 182.116,174.212 182.116,173.246 183.082 M225.906 182.943 C 225.684 183.303,225.923 183.432,226.442 183.232 C 227.061 182.995,227.529 183.468,227.820 184.628 C 228.062 185.594,228.402 186.243,228.575 186.070 C 228.748 185.897,228.593 184.977,228.231 184.025 C 227.554 182.244,226.610 181.805,225.906 182.943 M170.242 191.226 C 169.304 194.015,168.649 196.409,168.787 196.546 C 168.924 196.684,169.804 194.514,170.742 191.725 C 171.679 188.936,172.334 186.542,172.197 186.404 C 172.059 186.267,171.180 188.437,170.242 191.226 M229.228 188.197 C 229.470 189.098,229.940 190.279,230.275 190.820 C 230.697 191.503,230.749 191.303,230.444 190.164 C 230.203 189.262,229.732 188.082,229.398 187.541 C 228.975 186.857,228.924 187.057,229.228 188.197 M179.672 190.164 C 180.815 191.607,181.897 192.787,182.077 192.787 C 182.258 192.787,181.470 191.607,180.328 190.164 C 179.185 188.721,178.103 187.541,177.923 187.541 C 177.742 187.541,178.530 188.721,179.672 190.164 M219.847 191.311 C 217.019 194.967,214.950 198.033,215.313 198.033 C 215.489 198.033,217.135 195.967,218.971 193.443 C 222.481 188.617,223.103 187.103,219.847 191.311 M144.995 194.831 C 144.236 197.078,143.728 199.029,143.866 199.167 C 144.004 199.305,144.738 197.579,145.497 195.333 C 146.255 193.086,146.763 191.135,146.625 190.997 C 146.488 190.859,145.754 192.585,144.995 194.831 M142.368 202.040 C 141.964 203.199,141.748 204.262,141.888 204.402 C 142.029 204.542,142.474 203.709,142.878 202.550 C 143.282 201.391,143.498 200.328,143.357 200.188 C 143.217 200.048,142.772 200.881,142.368 202.040 M71.594 203.934 C 73.248 208.905,75.646 215.064,75.849 214.862 C 76.142 214.568,72.246 203.807,71.661 203.296 C 71.444 203.106,71.414 203.393,71.594 203.934 M325.979 208.602 C 325.220 210.848,324.712 212.800,324.850 212.937 C 324.988 213.075,325.721 211.350,326.480 209.103 C 327.239 206.856,327.747 204.905,327.609 204.767 C 327.471 204.630,326.738 206.355,325.979 208.602 M99.347 207.213 C 100.520 211.109,103.776 219.721,103.994 219.503 C 104.269 219.229,99.766 206.419,99.217 205.910 C 99.017 205.725,99.076 206.311,99.347 207.213 M236.388 208.197 C 238.142 213.653,240.880 220.978,241.088 220.770 C 241.395 220.462,237.499 209.252,236.603 207.869 C 236.114 207.113,236.064 207.189,236.388 208.197 M264.390 213.115 C 264.575 213.656,265.390 216.109,266.201 218.566 C 267.012 221.024,267.792 222.918,267.935 222.776 C 268.253 222.457,265.094 213.052,264.489 212.517 C 264.249 212.305,264.205 212.574,264.390 213.115 M160.734 219.095 C 159.617 222.426,158.815 225.263,158.952 225.401 C 159.089 225.538,160.116 222.924,161.233 219.593 C 162.350 216.262,163.152 213.425,163.015 213.288 C 162.878 213.151,161.852 215.764,160.734 219.095 M297.128 223.030 C 296.011 226.360,295.209 229.198,295.346 229.335 C 295.483 229.472,296.509 226.859,297.626 223.528 C 298.743 220.197,299.545 217.359,299.408 217.222 C 299.271 217.085,298.245 219.699,297.128 223.030 M132.881 229.602 C 131.564 233.274,130.596 236.388,130.731 236.523 C 130.865 236.658,132.054 233.764,133.372 230.094 C 134.691 226.423,135.658 223.309,135.522 223.173 C 135.386 223.037,134.198 225.930,132.881 229.602 M84.053 238.033 C 85.707 243.004,88.105 249.163,88.308 248.960 C 88.601 248.666,84.705 237.905,84.120 237.394 C 83.903 237.204,83.873 237.492,84.053 238.033 M110.281 238.033 C 112.334 244.238,115.649 253.094,115.845 252.898 C 116.141 252.602,110.939 237.911,110.357 237.401 C 110.136 237.208,110.101 237.492,110.281 238.033 M312.532 247.286 C 310.854 252.039,309.591 256.039,309.727 256.175 C 309.863 256.311,311.346 252.532,313.024 247.778 C 314.701 243.024,315.963 239.023,315.829 238.889 C 315.694 238.754,314.210 242.533,312.532 247.286 M248.940 243.279 C 249.161 244.180,249.746 245.803,250.238 246.885 C 250.958 248.465,251.055 248.530,250.732 247.213 C 250.511 246.311,249.927 244.689,249.434 243.607 C 248.714 242.027,248.617 241.962,248.940 243.279 M276.193 247.213 C 276.378 247.754,277.193 250.207,278.004 252.665 C 278.815 255.122,279.596 257.016,279.738 256.874 C 280.056 256.556,276.897 247.151,276.292 246.615 C 276.052 246.403,276.008 246.672,276.193 247.213 M148.275 255.161 C 147.158 258.492,146.356 261.329,146.493 261.466 C 146.630 261.603,147.657 258.990,148.774 255.659 C 149.891 252.328,150.693 249.491,150.556 249.354 C 150.419 249.217,149.393 251.830,148.275 255.161 M251.563 250.492 C 251.784 251.393,252.369 253.016,252.861 254.098 C 253.581 255.678,253.678 255.743,253.355 254.426 C 253.134 253.525,252.550 251.902,252.057 250.820 C 251.337 249.240,251.240 249.175,251.563 250.492 M285.723 257.198 C 284.758 260.141,284.078 262.657,284.212 262.791 C 284.345 262.925,285.253 260.636,286.230 257.705 C 287.206 254.774,287.886 252.257,287.740 252.112 C 287.595 251.967,286.687 254.256,285.723 257.198 M121.364 262.426 C 120.761 264.153,120.483 264.392,119.987 263.607 C 119.644 263.066,119.364 262.918,119.364 263.279 C 119.364 265.672,120.662 265.719,121.647 263.361 C 122.226 261.975,122.569 260.711,122.409 260.551 C 122.250 260.392,121.779 261.235,121.364 262.426 M96.809 272.787 C 97.030 273.689,97.614 275.311,98.107 276.393 C 98.827 277.973,98.924 278.038,98.601 276.721 C 98.379 275.820,97.795 274.197,97.303 273.115 C 96.583 271.535,96.486 271.470,96.809 272.787 M301.689 278.965 C 299.139 286.925,299.068 290.329,301.394 293.093 C 303.103 295.125,307.369 297.711,308.990 297.699 C 309.455 297.695,308.337 296.994,306.506 296.141 C 299.829 293.032,298.952 289.525,302.269 279.209 C 303.337 275.889,304.097 273.059,303.958 272.920 C 303.820 272.781,302.799 275.502,301.689 278.965 M261.412 278.033 C 262.159 280.987,263.692 284.595,263.253 282.367 C 263.048 281.325,262.456 279.555,261.939 278.433 C 261.230 276.899,261.100 276.800,261.412 278.033 M262.951 292.025 C 262.263 293.473,260.834 294.651,258.197 295.945 C 254.560 297.730,254.426 297.887,254.426 300.373 L 254.426 302.951 282.131 302.794 L 309.836 302.638 282.459 302.459 L 255.082 302.281 255.092 300.157 C 255.100 298.253,255.451 297.863,258.475 296.393 C 261.811 294.772,264.643 291.905,264.176 290.620 C 264.043 290.255,263.492 290.887,262.951 292.025 M216.396 293.365 C 218.056 295.282,222.466 297.690,224.262 297.660 C 224.803 297.651,223.798 297.078,222.029 296.387 C 220.259 295.696,217.900 294.308,216.785 293.303 L 214.759 291.475 216.396 293.365 M99.355 293.759 C 98.708 294.473,96.671 295.638,94.827 296.347 C 92.984 297.056,91.918 297.645,92.459 297.656 C 94.044 297.688,98.582 295.386,99.938 293.863 C 100.625 293.091,101.039 292.459,100.859 292.459 C 100.679 292.459,100.002 293.044,99.355 293.759 M141.345 294.481 C 141.795 295.208,145.600 297.242,145.917 296.924 C 146.039 296.803,144.975 296.066,143.553 295.287 C 142.132 294.508,141.138 294.146,141.345 294.481 M183.191 294.448 C 182.819 294.821,181.063 295.692,179.290 296.385 C 177.516 297.077,176.508 297.651,177.049 297.660 C 178.386 297.682,183.338 295.392,183.892 294.495 C 184.456 293.583,184.081 293.558,183.191 294.448 M147.428 299.665 L 147.677 302.281 119.576 302.459 L 91.475 302.637 119.836 302.794 L 148.197 302.951 148.197 300.000 C 148.197 298.377,147.968 297.049,147.688 297.049 C 147.408 297.049,147.291 298.226,147.428 299.665 M188.361 302.786 C 195.123 302.893,206.189 302.893,212.951 302.786 C 219.713 302.679,214.180 302.592,200.656 302.592 C 187.131 302.592,181.598 302.679,188.361 302.786 " stroke="none" fill="#2f2f2f" fill-rule="evenodd"></path><path id="path2" d="M172.647 74.426 C 172.651 76.230,172.779 76.889,172.930 75.893 C 173.080 74.896,173.076 73.420,172.921 72.614 C 172.765 71.807,172.642 72.623,172.647 74.426 M259.860 74.426 C 259.865 76.230,259.992 76.889,260.143 75.893 C 260.293 74.896,260.289 73.420,260.134 72.614 C 259.978 71.807,259.855 72.623,259.860 74.426 M143.116 74.426 C 143.123 75.869,143.258 76.382,143.415 75.566 C 143.571 74.750,143.565 73.570,143.401 72.943 C 143.237 72.316,143.109 72.984,143.116 74.426 M266.833 83.115 C 267.147 85.378,267.192 85.424,267.409 83.691 C 267.538 82.655,267.385 81.549,267.068 81.232 C 266.738 80.902,266.638 81.706,266.833 83.115 M135.247 84.262 C 135.255 85.705,135.389 86.218,135.546 85.402 C 135.703 84.587,135.697 83.406,135.533 82.779 C 135.368 82.152,135.240 82.820,135.247 84.262 M181.805 84.918 C 181.812 86.361,181.946 86.874,182.103 86.058 C 182.260 85.242,182.254 84.062,182.090 83.435 C 181.926 82.808,181.797 83.475,181.805 84.918 M57.870 85.574 C 57.878 87.016,58.012 87.529,58.169 86.714 C 58.326 85.898,58.320 84.718,58.155 84.091 C 57.991 83.464,57.863 84.131,57.870 85.574 M221.791 85.902 C 221.791 87.164,221.926 87.680,222.091 87.049 C 222.256 86.418,222.256 85.385,222.091 84.754 C 221.926 84.123,221.791 84.639,221.791 85.902 M296.371 89.016 L 292.787 92.787 296.557 89.203 C 300.060 85.873,300.628 85.246,300.142 85.246 C 300.039 85.246,298.342 86.943,296.371 89.016 M265.374 88.205 C 264.774 89.463,264.419 90.492,264.584 90.492 C 265.033 90.492,267.023 86.477,266.723 86.177 C 266.581 86.035,265.974 86.947,265.374 88.205 M99.016 86.763 C 99.016 86.875,99.975 87.834,101.148 88.894 L 103.279 90.820 101.353 88.689 C 99.557 86.702,99.016 86.256,99.016 86.763 M368.821 88.586 C 368.244 89.701,367.889 90.730,368.031 90.872 C 368.173 91.015,368.780 90.102,369.380 88.844 C 370.729 86.016,370.261 85.800,368.821 88.586 M30.210 92.787 C 30.210 93.148,30.632 94.180,31.148 95.082 C 31.663 95.984,32.085 96.426,32.085 96.066 C 32.085 95.705,31.663 94.672,31.148 93.770 C 30.632 92.869,30.210 92.426,30.210 92.787 M288.076 98.197 C 284.429 102.674,283.737 103.607,284.064 103.607 C 284.224 103.607,285.892 101.689,287.770 99.344 C 289.649 97.000,291.057 95.082,290.900 95.082 C 290.743 95.082,289.472 96.484,288.076 98.197 M60.744 97.049 C 60.965 97.951,61.549 99.574,62.042 100.656 C 62.761 102.236,62.858 102.300,62.535 100.984 C 62.314 100.082,61.730 98.459,61.237 97.377 C 60.518 95.797,60.421 95.733,60.744 97.049 M225.334 99.016 C 225.555 99.918,226.139 101.541,226.632 102.623 C 227.351 104.203,227.448 104.267,227.125 102.951 C 226.904 102.049,226.320 100.426,225.827 99.344 C 225.108 97.764,225.011 97.700,225.334 99.016 M254.615 104.426 C 251.771 108.142,250.272 110.360,250.834 110.021 C 251.609 109.553,255.963 103.607,255.531 103.607 C 255.372 103.607,254.960 103.975,254.615 104.426 M64.638 108.197 C 64.879 109.098,65.350 110.279,65.684 110.820 C 66.107 111.503,66.158 111.303,65.854 110.164 C 65.612 109.262,65.142 108.082,64.807 107.541 C 64.385 106.857,64.333 107.057,64.638 108.197 M276.721 113.443 C 275.951 114.525,275.468 115.410,275.648 115.410 C 275.829 115.410,276.607 114.525,277.377 113.443 C 278.147 112.361,278.630 111.475,278.450 111.475 C 278.270 111.475,277.492 112.361,276.721 113.443 M171.880 116.143 C 171.122 118.389,170.614 120.341,170.752 120.478 C 170.890 120.616,171.623 118.891,172.382 116.644 C 173.141 114.397,173.649 112.446,173.511 112.308 C 173.373 112.171,172.639 113.896,171.880 116.143 M357.454 119.421 C 356.695 121.668,356.188 123.619,356.325 123.757 C 356.463 123.895,357.197 122.170,357.956 119.923 C 358.714 117.676,359.222 115.725,359.084 115.587 C 358.947 115.449,358.213 117.175,357.454 119.421 M158.402 120.820 C 160.450 123.615,162.256 125.902,162.415 125.902 C 162.825 125.902,158.899 120.505,156.603 117.912 C 155.545 116.716,156.354 118.025,158.402 120.820 M274.287 116.885 C 271.444 120.601,269.945 122.819,270.506 122.480 C 271.281 122.012,275.635 116.066,275.203 116.066 C 275.044 116.066,274.632 116.434,274.287 116.885 M241.967 121.967 C 241.197 123.049,240.714 123.934,240.894 123.934 C 241.075 123.934,241.853 123.049,242.623 121.967 C 243.393 120.885,243.876 120.000,243.696 120.000 C 243.516 120.000,242.738 120.885,241.967 121.967 M41.687 123.279 C 41.929 124.180,42.399 125.361,42.734 125.902 C 43.156 126.585,43.208 126.385,42.903 125.246 C 42.662 124.344,42.191 123.164,41.857 122.623 C 41.434 121.939,41.383 122.139,41.687 123.279 M206.317 125.246 C 206.539 126.148,207.123 127.770,207.615 128.852 C 208.335 130.432,208.432 130.497,208.109 129.180 C 207.888 128.279,207.304 126.656,206.811 125.574 C 206.092 123.994,205.994 123.929,206.317 125.246 M190.897 132.536 C 190.138 134.783,189.630 136.734,189.768 136.872 C 189.906 137.010,190.640 135.284,191.398 133.038 C 192.157 130.791,192.665 128.840,192.527 128.702 C 192.389 128.564,191.656 130.289,190.897 132.536 M72.507 130.492 C 72.748 131.393,73.219 132.574,73.553 133.115 C 73.976 133.798,74.027 133.598,73.722 132.459 C 73.481 131.557,73.011 130.377,72.676 129.836 C 72.254 129.152,72.202 129.352,72.507 130.492 M324.341 140.735 C 323.045 144.607,322.096 147.888,322.232 148.025 C 322.369 148.162,323.542 145.105,324.839 141.232 C 326.136 137.360,327.085 134.079,326.948 133.943 C 326.811 133.806,325.638 136.862,324.341 140.735 M74.261 135.246 C 74.427 135.697,75.079 137.634,75.709 139.551 C 76.339 141.467,76.970 142.920,77.111 142.779 C 77.444 142.447,74.741 134.426,74.296 134.426 C 74.110 134.426,74.094 134.795,74.261 135.246 M144.904 145.554 C 145.667 146.625,146.625 147.708,147.035 147.961 C 147.444 148.214,146.953 147.338,145.943 146.014 C 143.751 143.140,142.925 142.774,144.904 145.554 M251.992 147.705 C 249.148 151.421,247.649 153.639,248.211 153.300 C 248.986 152.831,253.340 146.885,252.908 146.885 C 252.749 146.885,252.337 147.254,251.992 147.705 M345.977 152.535 C 345.397 154.238,345.035 155.746,345.174 155.884 C 345.313 156.023,345.901 154.743,346.482 153.039 C 347.062 151.335,347.424 149.828,347.285 149.689 C 347.146 149.551,346.558 150.831,345.977 152.535 M52.179 152.131 C 52.420 153.033,52.891 154.213,53.225 154.754 C 53.648 155.438,53.699 155.238,53.395 154.098 C 53.153 153.197,52.683 152.016,52.348 151.475 C 51.926 150.792,51.874 150.992,52.179 152.131 M54.146 157.377 C 54.388 158.279,54.858 159.459,55.193 160.000 C 55.615 160.684,55.667 160.484,55.362 159.344 C 55.121 158.443,54.650 157.262,54.316 156.721 C 53.893 156.038,53.842 156.238,54.146 157.377 M215.082 159.344 C 214.312 160.426,213.829 161.311,214.009 161.311 C 214.189 161.311,214.967 160.426,215.738 159.344 C 216.508 158.262,216.991 157.377,216.811 157.377 C 216.630 157.377,215.852 158.262,215.082 159.344 M85.622 167.213 C 85.863 168.115,86.334 169.295,86.668 169.836 C 87.090 170.520,87.142 170.320,86.837 169.180 C 86.596 168.279,86.125 167.098,85.791 166.557 C 85.369 165.874,85.317 166.074,85.622 167.213 M252.219 176.393 C 252.440 177.295,253.024 178.918,253.517 180.000 C 254.236 181.580,254.334 181.644,254.011 180.328 C 253.789 179.426,253.205 177.803,252.713 176.721 C 251.993 175.141,251.896 175.077,252.219 176.393 M335.155 183.679 C 334.751 184.838,334.535 185.901,334.675 186.041 C 334.816 186.182,335.261 185.348,335.665 184.189 C 336.069 183.031,336.285 181.968,336.144 181.827 C 336.004 181.687,335.559 182.521,335.155 183.679 M64.638 186.230 C 64.879 187.131,65.350 188.311,65.684 188.852 C 66.107 189.536,66.158 189.336,65.854 188.197 C 65.612 187.295,65.142 186.115,64.807 185.574 C 64.385 184.890,64.333 185.090,64.638 186.230 M146.633 188.600 C 146.053 190.304,145.691 191.811,145.830 191.950 C 145.969 192.089,146.557 190.808,147.137 189.105 C 147.718 187.401,148.079 185.894,147.941 185.755 C 147.802 185.616,147.214 186.897,146.633 188.600 M66.605 191.475 C 66.847 192.377,67.317 193.557,67.652 194.098 C 68.074 194.782,68.126 194.582,67.821 193.443 C 67.580 192.541,67.109 191.361,66.775 190.820 C 66.352 190.136,66.301 190.336,66.605 191.475 M229.884 191.475 C 230.125 192.377,230.596 193.557,230.930 194.098 C 231.353 194.782,231.404 194.582,231.100 193.443 C 230.858 192.541,230.388 191.361,230.053 190.820 C 229.631 190.136,229.579 190.336,229.884 191.475 M182.623 194.754 C 184.288 196.918,185.798 198.689,185.978 198.689 C 186.159 198.689,184.944 196.918,183.279 194.754 C 181.614 192.590,180.104 190.820,179.923 190.820 C 179.743 190.820,180.958 192.590,182.623 194.754 M331.876 192.860 C 331.472 194.019,331.256 195.082,331.397 195.222 C 331.537 195.362,331.982 194.529,332.386 193.370 C 332.790 192.211,333.006 191.148,332.866 191.008 C 332.725 190.867,332.280 191.701,331.876 192.860 M168.272 198.436 C 167.692 200.140,167.330 201.647,167.469 201.786 C 167.608 201.925,168.196 200.644,168.777 198.941 C 169.357 197.237,169.719 195.730,169.580 195.591 C 169.441 195.452,168.853 196.733,168.272 198.436 M96.769 198.689 C 97.010 199.590,97.481 200.770,97.816 201.311 C 98.238 201.995,98.290 201.795,97.985 200.656 C 97.744 199.754,97.273 198.574,96.939 198.033 C 96.516 197.349,96.465 197.549,96.769 198.689 M214.208 199.781 C 213.645 200.344,213.762 286.389,214.328 288.401 C 214.562 289.235,214.754 269.539,214.754 244.631 C 214.754 219.723,214.730 199.344,214.699 199.344 C 214.669 199.344,214.448 199.541,214.208 199.781 M300.735 210.899 C 299.438 214.771,298.489 218.052,298.626 218.189 C 298.763 218.325,299.936 215.269,301.232 211.396 C 302.529 207.524,303.478 204.243,303.341 204.106 C 303.205 203.970,302.032 207.026,300.735 210.899 M263.982 210.492 C 264.224 211.393,264.694 212.574,265.029 213.115 C 265.451 213.798,265.503 213.598,265.198 212.459 C 264.957 211.557,264.486 210.377,264.152 209.836 C 263.729 209.152,263.678 209.352,263.982 210.492 M136.144 218.767 C 135.206 221.556,134.551 223.950,134.688 224.087 C 134.826 224.225,135.706 222.055,136.643 219.266 C 137.581 216.477,138.236 214.083,138.098 213.945 C 137.961 213.808,137.081 215.978,136.144 218.767 M77.097 220.328 C 77.338 221.230,77.809 222.410,78.143 222.951 C 78.566 223.634,78.617 223.434,78.313 222.295 C 78.071 221.393,77.601 220.213,77.266 219.672 C 76.844 218.989,76.792 219.189,77.097 220.328 M240.376 220.984 C 240.617 221.885,241.088 223.066,241.422 223.607 C 241.844 224.290,241.896 224.090,241.591 222.951 C 241.350 222.049,240.879 220.869,240.545 220.328 C 240.123 219.644,240.071 219.844,240.376 220.984 M320.404 225.977 C 319.823 227.681,319.462 229.188,319.600 229.327 C 319.739 229.466,320.327 228.185,320.908 226.482 C 321.488 224.778,321.850 223.271,321.711 223.132 C 321.572 222.993,320.984 224.274,320.404 225.977 M242.343 226.230 C 242.584 227.131,243.055 228.311,243.389 228.852 C 243.812 229.536,243.863 229.336,243.559 228.197 C 243.317 227.295,242.847 226.115,242.512 225.574 C 242.090 224.890,242.038 225.090,242.343 226.230 M155.483 235.483 C 155.079 236.642,154.863 237.704,155.003 237.845 C 155.143 237.985,155.589 237.152,155.993 235.993 C 156.397 234.834,156.612 233.771,156.472 233.631 C 156.332 233.490,155.887 234.324,155.483 235.483 M109.884 235.410 C 110.125 236.311,110.596 237.492,110.930 238.033 C 111.353 238.716,111.404 238.516,111.100 237.377 C 110.858 236.475,110.388 235.295,110.053 234.754 C 109.631 234.071,109.579 234.271,109.884 235.410 M273.570 238.033 C 273.755 238.574,274.570 241.027,275.381 243.485 C 276.192 245.942,276.973 247.836,277.115 247.694 C 277.433 247.375,274.274 237.971,273.669 237.435 C 273.430 237.223,273.385 237.492,273.570 238.033 M125.649 248.928 C 125.069 250.632,124.707 252.139,124.846 252.278 C 124.985 252.417,125.573 251.136,126.154 249.433 C 126.734 247.729,127.096 246.221,126.957 246.083 C 126.818 245.944,126.230 247.224,125.649 248.928 M87.589 249.180 C 87.830 250.082,88.301 251.262,88.635 251.803 C 89.058 252.487,89.109 252.287,88.804 251.148 C 88.563 250.246,88.092 249.066,87.758 248.525 C 87.336 247.841,87.284 248.041,87.589 249.180 M89.556 254.426 C 89.797 255.328,90.268 256.508,90.602 257.049 C 91.025 257.733,91.076 257.533,90.772 256.393 C 90.530 255.492,90.060 254.311,89.725 253.770 C 89.303 253.087,89.251 253.287,89.556 254.426 M252.875 255.738 C 253.096 256.639,253.680 258.262,254.173 259.344 C 254.892 260.924,254.989 260.989,254.666 259.672 C 254.445 258.770,253.861 257.148,253.368 256.066 C 252.649 254.486,252.552 254.421,252.875 255.738 M309.256 258.108 C 308.675 259.812,308.314 261.320,308.453 261.458 C 308.591 261.597,309.180 260.317,309.760 258.613 C 310.341 256.909,310.702 255.402,310.564 255.263 C 310.425 255.124,309.836 256.405,309.256 258.108 M145.651 264.339 C 144.892 266.586,144.384 268.537,144.522 268.675 C 144.660 268.813,145.394 267.088,146.152 264.841 C 146.911 262.594,147.419 260.643,147.281 260.505 C 147.143 260.367,146.410 262.093,145.651 264.339 M98.133 278.033 C 98.881 280.987,100.413 284.595,99.974 282.367 C 99.769 281.325,99.178 279.555,98.660 278.433 C 97.952 276.899,97.821 276.800,98.133 278.033 M100.380 291.105 C 100.351 291.623,99.672 292.803,98.871 293.728 L 97.414 295.410 99.277 293.677 C 100.302 292.724,100.981 291.544,100.786 291.054 C 100.500 290.336,100.421 290.345,100.380 291.105 M215.082 290.916 C 215.082 291.269,216.041 292.425,217.213 293.484 L 219.344 295.410 217.377 293.118 C 216.295 291.858,215.336 290.702,215.246 290.550 C 215.156 290.398,215.082 290.562,215.082 290.916 M254.464 297.331 C 254.036 297.847,253.803 299.396,253.946 300.774 L 254.206 303.279 254.316 300.524 C 254.390 298.678,254.804 297.550,255.574 297.102 C 256.205 296.734,256.389 296.424,255.982 296.413 C 255.575 296.402,254.892 296.815,254.464 297.331 M91.335 300.000 C 91.340 301.803,91.467 302.463,91.618 301.466 C 91.769 300.470,91.765 298.994,91.609 298.188 C 91.453 297.381,91.330 298.197,91.335 300.000 M148.384 300.000 C 148.389 301.803,148.517 302.463,148.667 301.466 C 148.818 300.470,148.814 298.994,148.658 298.188 C 148.503 297.381,148.379 298.197,148.384 300.000 M309.696 300.000 C 309.701 301.803,309.828 302.463,309.979 301.466 C 310.129 300.470,310.125 298.994,309.970 298.188 C 309.814 297.381,309.691 298.197,309.696 300.000 M225.097 300.328 C 225.097 301.951,225.225 302.615,225.381 301.803 C 225.537 300.992,225.537 299.664,225.381 298.852 C 225.225 298.041,225.097 298.705,225.097 300.328 " stroke="none" fill="#bfbfbf" fill-rule="evenodd"></path><path id="path3" d="M172.061 74.375 C 172.110 76.645,172.423 77.681,173.115 77.868 C 173.795 78.051,173.859 77.962,173.324 77.580 C 172.898 77.276,172.424 75.705,172.270 74.088 L 171.990 71.148 172.061 74.375 M231.463 74.558 C 231.290 76.435,231.388 77.729,231.681 77.434 C 231.975 77.140,232.117 75.605,231.997 74.024 L 231.779 71.148 231.463 74.558 M96.066 83.934 C 97.474 85.377,98.774 86.557,98.955 86.557 C 99.135 86.557,98.130 85.377,96.721 83.934 C 95.313 82.492,94.013 81.311,93.832 81.311 C 93.652 81.311,94.657 82.492,96.066 83.934 M174.499 107.614 C 174.095 108.773,173.879 109.836,174.020 109.976 C 174.160 110.116,174.605 109.283,175.009 108.124 C 175.413 106.965,175.629 105.902,175.489 105.762 C 175.348 105.622,174.903 106.455,174.499 107.614 M315.483 165.974 C 315.079 167.133,314.863 168.196,315.003 168.337 C 315.143 168.477,315.589 167.643,315.993 166.485 C 316.397 165.326,316.612 164.263,316.472 164.122 C 316.332 163.982,315.887 164.816,315.483 165.974 M150.237 177.122 C 149.833 178.281,149.617 179.344,149.757 179.484 C 149.898 179.624,150.343 178.791,150.747 177.632 C 151.151 176.473,151.367 175.410,151.226 175.270 C 151.086 175.130,150.641 175.963,150.237 177.122 M67.917 196.066 C 68.158 196.967,68.629 198.148,68.963 198.689 C 69.385 199.372,69.437 199.172,69.132 198.033 C 68.891 197.131,68.420 195.951,68.086 195.410 C 67.664 194.726,67.612 194.926,67.917 196.066 M187.194 242.951 C 187.195 266.393,187.277 275.888,187.377 264.051 C 187.477 252.213,187.477 233.033,187.377 221.428 C 187.276 209.823,187.194 219.508,187.194 242.951 M139.089 209.253 C 138.685 210.412,138.469 211.475,138.610 211.615 C 138.750 211.755,139.195 210.922,139.599 209.763 C 140.003 208.604,140.219 207.541,140.079 207.401 C 139.939 207.261,139.493 208.094,139.089 209.253 M271.851 232.131 C 272.092 233.033,272.563 234.213,272.898 234.754 C 273.320 235.438,273.371 235.238,273.067 234.098 C 272.826 233.197,272.355 232.016,272.021 231.475 C 271.598 230.792,271.547 230.992,271.851 232.131 M244.350 232.787 C 244.571 233.689,245.155 235.311,245.648 236.393 C 246.368 237.973,246.465 238.038,246.142 236.721 C 245.920 235.820,245.336 234.197,244.844 233.115 C 244.124 231.535,244.027 231.470,244.350 232.787 M291.876 236.138 C 291.472 237.297,291.256 238.360,291.397 238.500 C 291.537 238.641,291.982 237.807,292.386 236.648 C 292.790 235.490,293.006 234.427,292.866 234.286 C 292.725 234.146,292.280 234.980,291.876 236.138 M306.958 265.647 C 306.554 266.805,306.338 267.868,306.479 268.009 C 306.619 268.149,307.064 267.316,307.468 266.157 C 307.872 264.998,308.088 263.935,307.948 263.795 C 307.807 263.654,307.362 264.488,306.958 265.647 M142.043 275.813 C 141.462 277.517,141.101 279.024,141.240 279.163 C 141.378 279.302,141.967 278.021,142.547 276.318 C 143.128 274.614,143.489 273.107,143.351 272.968 C 143.212 272.829,142.623 274.110,142.043 275.813 " stroke="none" fill="#efefef" fill-rule="evenodd"></path><path id="path4" d="M0.000 163.934 L 0.000 327.869 200.000 327.869 L 400.000 327.869 400.000 163.934 L 400.000 0.000 200.000 0.000 L 0.000 0.000 0.000 163.934 M68.069 74.525 C 67.872 77.528,67.824 77.587,64.898 78.437 C 60.279 79.779,58.157 82.407,58.519 86.336 C 58.777 89.136,69.592 121.727,71.359 125.028 C 71.735 125.730,74.282 132.927,77.021 141.021 C 79.759 149.115,82.451 156.701,83.002 157.878 C 83.553 159.055,86.321 166.727,89.152 174.927 C 91.983 183.127,95.839 194.115,97.720 199.344 C 105.783 221.752,107.273 225.956,111.895 239.344 C 114.572 247.098,117.161 254.328,117.650 255.410 C 118.138 256.492,118.926 258.484,119.401 259.836 C 120.629 263.337,120.635 263.327,124.405 252.295 C 126.285 246.795,130.644 234.180,134.092 224.262 C 137.541 214.344,142.865 198.879,145.925 189.896 C 148.984 180.913,151.744 173.241,152.058 172.847 C 152.372 172.453,153.459 169.561,154.474 166.421 L 156.318 160.710 153.370 156.912 C 151.748 154.824,148.432 150.459,146.000 147.213 C 143.568 143.967,140.131 139.541,138.362 137.377 C 136.593 135.213,133.583 131.319,131.671 128.724 C 129.760 126.128,125.635 120.669,122.505 116.593 C 119.374 112.516,114.102 105.639,110.788 101.311 C 98.345 85.058,90.631 78.033,85.227 78.033 C 84.113 78.033,83.934 77.580,83.934 74.754 L 83.934 71.475 113.806 71.475 L 143.678 71.475 143.479 74.569 C 143.293 77.436,143.122 77.707,141.138 78.273 C 133.636 80.413,134.229 86.934,143.018 98.930 C 151.080 109.934,164.787 128.279,165.772 129.383 C 166.883 130.628,168.256 127.084,178.426 96.721 C 182.971 83.154,182.304 79.670,174.882 78.211 C 172.156 77.675,172.129 77.642,171.931 74.573 L 171.731 71.475 201.967 71.475 L 232.203 71.475 232.003 74.539 C 231.810 77.502,231.712 77.633,229.033 78.522 C 224.985 79.867,222.295 82.618,222.295 85.414 C 222.295 87.150,233.149 121.027,235.748 127.405 C 236.454 129.136,236.938 128.723,241.114 122.821 C 243.206 119.865,248.459 112.550,252.787 106.567 C 268.448 84.916,269.580 81.698,262.620 78.619 C 259.763 77.356,259.672 77.225,259.672 74.396 L 259.672 71.475 287.213 71.475 L 314.754 71.475 314.754 74.754 C 314.754 77.194,314.509 78.033,313.795 78.033 C 306.566 78.033,294.617 89.642,278.362 112.459 C 275.535 116.426,271.697 121.738,269.832 124.262 C 266.341 128.989,262.157 134.776,257.114 141.852 C 255.526 144.079,252.338 148.465,250.029 151.598 L 245.831 157.294 247.148 160.185 C 247.872 161.775,250.699 169.835,253.430 178.095 C 256.160 186.356,258.862 194.113,259.433 195.333 C 260.005 196.553,262.665 204.225,265.345 212.382 C 268.025 220.539,270.759 228.393,271.422 229.836 C 272.085 231.279,274.751 238.944,277.347 246.869 C 279.943 254.795,282.311 261.715,282.609 262.248 C 282.975 262.900,284.669 258.628,287.803 249.149 C 299.839 212.753,304.273 199.569,304.882 198.361 C 305.245 197.639,307.909 189.820,310.801 180.984 C 320.029 152.788,327.808 129.549,328.469 128.197 C 330.159 124.741,341.111 89.746,341.441 86.745 C 341.896 82.617,339.185 79.149,334.871 78.339 C 332.483 77.891,332.459 77.855,332.459 74.681 L 332.459 71.475 358.361 71.475 L 384.262 71.475 384.261 74.590 L 384.260 77.705 380.360 78.851 C 372.287 81.223,369.020 87.082,359.244 116.721 C 356.687 124.475,354.054 132.000,353.393 133.443 C 352.732 134.885,349.966 142.805,347.247 151.042 C 344.527 159.278,341.866 166.950,341.334 168.091 C 340.801 169.231,338.008 177.098,335.127 185.574 C 332.245 194.049,327.061 209.098,323.607 219.016 C 320.153 228.934,314.999 243.836,312.153 252.131 C 309.307 260.426,305.755 270.607,304.260 274.754 C 299.301 288.511,300.313 294.691,307.752 296.087 C 310.140 296.535,310.164 296.571,310.164 299.745 L 310.164 302.951 281.967 302.951 L 253.770 302.951 253.770 299.979 C 253.770 297.713,254.043 296.929,254.918 296.676 C 259.007 295.494,262.001 293.222,262.930 290.596 C 264.071 287.369,265.098 290.521,240.471 221.639 C 237.054 212.082,232.695 199.836,230.784 194.426 C 228.873 189.016,227.199 184.452,227.063 184.282 C 226.753 183.896,224.499 186.749,218.852 194.675 L 214.426 200.889 214.430 241.920 C 214.435 292.998,214.378 292.577,221.700 295.527 C 225.203 296.938,225.248 296.991,225.446 299.953 L 225.646 302.951 201.020 302.951 L 176.393 302.951 176.401 299.836 L 176.408 296.721 179.788 295.410 C 186.976 292.621,186.822 293.766,186.857 242.856 L 186.885 200.793 180.935 192.864 C 177.662 188.503,174.737 184.782,174.435 184.596 C 173.909 184.271,172.155 189.197,159.378 226.885 C 156.260 236.082,153.462 244.197,153.160 244.918 C 151.200 249.600,140.727 281.159,139.885 284.918 C 138.483 291.176,139.044 292.400,144.551 295.112 L 148.852 297.229 148.852 300.090 L 148.852 302.951 120.000 302.951 L 91.148 302.951 91.148 299.979 C 91.148 297.725,91.424 296.920,92.295 296.645 C 99.170 294.471,100.654 292.720,100.164 287.356 C 99.851 283.927,95.088 268.767,92.777 263.844 C 92.246 262.712,89.464 255.109,86.594 246.949 C 83.724 238.788,81.160 231.761,80.895 231.332 C 80.630 230.904,78.139 224.195,75.358 216.424 C 64.105 184.976,60.734 175.699,57.717 167.869 C 55.980 163.361,52.914 154.872,50.903 149.006 C 48.893 143.140,46.918 137.723,46.514 136.968 C 46.110 136.214,43.449 128.915,40.600 120.749 C 37.751 112.583,35.138 105.414,34.793 104.817 C 34.448 104.221,33.153 101.110,31.915 97.903 C 26.723 84.461,23.892 80.679,17.646 78.843 L 13.772 77.705 13.771 74.590 L 13.770 71.475 41.020 71.475 L 68.269 71.475 68.069 74.525 M194.476 124.562 C 191.656 133.203,188.947 141.046,188.457 141.991 C 186.862 145.065,184.238 154.184,184.722 154.971 C 184.981 155.393,187.861 159.313,191.121 163.684 C 194.382 168.054,198.049 173.063,199.270 174.814 C 201.382 177.841,201.535 177.934,202.385 176.704 C 202.877 175.992,205.236 172.754,207.628 169.508 C 210.019 166.262,213.107 161.941,214.490 159.904 L 217.005 156.202 214.397 148.429 C 212.962 144.154,211.246 139.475,210.584 138.033 C 209.922 136.590,207.350 129.434,204.868 122.131 C 202.386 114.828,200.187 108.852,199.980 108.852 C 199.773 108.852,197.296 115.922,194.476 124.562 " stroke="none" fill="#ffffff" fill-rule="evenodd"></path></g></svg>